<?xml version="1.0" standalone="no"?>
<!DOCTYPE svg PUBLIC "-//W3C//DTD SVG 20010904//EN"
 "http://www.w3.org/TR/2001/REC-SVG-20010904/DTD/svg10.dtd">
<svg version="1.0" xmlns="http://www.w3.org/2000/svg"
 width="1161.000000pt" height="1021.000000pt" viewBox="0 0 1161.000000 1021.000000"
 preserveAspectRatio="xMidYMid meet">

<g transform="translate(0.000000,1021.000000) scale(0.100000,-0.100000)"
fill="#000000" stroke="none">
<path d="M5879 9608 c-28 -40 -68 -103 -90 -140 -37 -63 -42 -67 -82 -72 -23
-3 -87 -12 -142 -19 l-100 -14 -102 96 c-56 53 -116 104 -132 114 l-31 18 -20
-33 c-11 -18 -40 -82 -65 -143 -59 -143 -57 -138 -96 -149 -19 -5 -80 -24
-136 -41 l-102 -32 -78 54 c-85 59 -195 123 -212 123 -13 0 -48 -117 -70 -235
l-17 -90 -133 -68 -133 -69 -97 45 c-133 62 -210 85 -221 68 -9 -15 -15 -76
-26 -232 l-6 -97 -100 -73 c-55 -41 -108 -80 -117 -86 -14 -10 -39 -7 -135 17
-129 33 -156 36 -156 18 0 -6 -7 -4 -18 5 -25 23 -42 21 -42 -5 0 -12 3 -18 6
-15 11 10 44 -12 44 -29 0 -12 -6 -15 -26 -10 l-27 7 7 -73 c4 -40 11 -99 17
-131 l10 -58 -63 -71 c-38 -43 -58 -73 -50 -75 6 -3 12 -9 12 -15 0 -5 -9 -6
-21 -3 -16 5 -30 -1 -54 -25 l-32 -31 -139 9 c-169 12 -194 9 -194 -25 0 -31
23 -124 56 -223 l24 -76 -90 -134 c-61 -92 -95 -135 -108 -135 -24 -1 -102
-62 -102 -81 0 -19 19 -18 26 1 11 28 26 15 22 -17 -7 -46 -12 -62 -22 -70 -5
-3 -1 -18 9 -34 10 -15 18 -43 17 -61 -2 -37 5 -41 24 -15 13 16 13 16 14 0 0
-24 25 -23 66 3 19 12 42 18 53 14 13 -4 23 2 35 19 20 32 20 36 -2 36 -41 0
-55 45 -23 74 21 19 35 8 25 -18 -5 -12 0 -16 18 -16 20 0 34 15 73 78 123
194 294 416 444 574 51 54 90 102 86 108 -4 6 -13 7 -23 1 -20 -10 -45 -3 -36
10 3 5 16 9 30 9 13 0 24 2 24 5 0 17 -26 56 -42 60 -10 4 -18 11 -18 18 0 8
3 8 12 -1 16 -16 28 -15 28 3 0 12 4 14 17 7 10 -6 17 -24 19 -48 1 -22 2 -45
3 -53 0 -8 38 22 84 65 588 564 1371 933 2202 1040 183 23 212 24 475 25 394
1 718 -46 1100 -157 63 -19 120 -34 127 -34 17 0 184 161 177 171 -3 5 -14 40
-24 77 -35 127 -81 242 -96 242 -20 0 -117 -67 -204 -139 l-69 -58 -108 23
c-59 13 -123 27 -142 31 -31 7 -39 18 -85 109 -63 123 -108 194 -121 194 -12
0 -142 -131 -199 -200 l-37 -45 -107 3 c-177 5 -181 6 -225 67 -68 98 -158
205 -173 205 -7 0 -36 -33 -65 -72z m841 -236 c0 -5 16 -16 35 -25 35 -17 43
-31 25 -42 -5 -3 -15 3 -22 15 -7 11 -18 20 -24 20 -7 0 -22 9 -35 20 l-24 19
23 1 c12 0 22 -4 22 -8z m-3380 -952 c0 -5 -2 -10 -4 -10 -3 0 -8 5 -11 10 -3
6 -1 10 4 10 6 0 11 -4 11 -10z m-30 -25 c0 -8 -4 -15 -9 -15 -13 0 -22 16
-14 24 11 11 23 6 23 -9z m-40 -24 c0 -6 -4 -13 -10 -16 -5 -3 -10 1 -10 9 0
9 5 16 10 16 6 0 10 -4 10 -9z m90 -121 c8 -16 8 -20 -4 -20 -7 0 -17 -8 -20
-17 -10 -26 -30 1 -22 31 8 31 31 34 46 6z m-462 -305 c17 -21 20 -40 19 -107
0 -54 3 -83 11 -86 6 -2 22 -12 34 -22 19 -15 20 -20 9 -34 -12 -14 -15 -13
-31 16 -9 18 -28 38 -41 45 -20 10 -24 20 -26 69 -1 31 -7 71 -13 90 -19 55 4
72 38 29z m-59 -84 c25 -34 26 -41 7 -41 -16 0 -46 37 -46 57 0 22 18 14 39
-16z"/>
<path d="M8018 9179 c-25 -14 -22 -28 7 -39 14 -5 25 -14 25 -20 0 -15 -7 -13
-40 11 -21 16 -36 20 -57 14 l-28 -7 35 -18 c54 -27 108 -36 116 -17 6 16 -21
87 -33 87 -4 0 -16 -5 -25 -11z"/>
<path d="M7590 9136 c0 -15 18 -31 26 -23 7 7 -7 37 -17 37 -5 0 -9 -6 -9 -14z"/>
<path d="M7526 9104 c-4 -10 -3 -20 1 -23 4 -3 16 -21 25 -39 17 -33 17 -34
-7 -60 -24 -25 -24 -27 -7 -43 9 -10 60 -35 113 -58 310 -131 625 -317 889
-525 62 -49 97 -71 102 -63 7 11 8 9 20 -29 7 -23 159 -146 173 -140 8 3 15 2
15 -3 0 -5 16 -16 35 -25 19 -9 34 -22 32 -27 -4 -22 31 -34 62 -22 27 10 31
9 36 -8 4 -11 1 -26 -5 -34 -7 -8 -10 -21 -7 -29 3 -7 1 -18 -4 -23 -7 -7 20
-45 77 -109 98 -112 221 -274 315 -414 34 -52 67 -96 71 -98 4 -2 8 -9 8 -15
1 -16 100 -185 100 -171 0 15 62 3 67 -13 3 -7 -6 -19 -20 -27 l-23 -16 66
-135 c37 -74 66 -135 64 -135 -1 0 15 -42 36 -93 105 -257 210 -658 240 -917
16 -134 18 -143 36 -136 10 4 18 -1 21 -14 6 -23 23 -27 23 -5 0 21 18 19 22
-2 3 -13 9 -8 20 18 9 20 22 40 29 45 10 6 8 10 -10 14 -18 4 -24 13 -26 37
-2 27 3 36 34 57 38 27 67 34 56 15 -4 -6 2 -13 14 -16 28 -7 26 -17 -6 -29
-22 -9 -32 -23 -47 -71 -20 -65 -16 -87 15 -78 16 5 19 1 19 -25 0 -18 4 -29
10 -25 6 4 10 -5 10 -19 0 -14 5 -26 11 -26 5 0 7 -4 4 -10 -3 -5 -11 -10 -16
-10 -6 0 -8 4 -5 8 2 4 1 14 -4 21 -10 17 -38 8 -46 -14 -10 -25 6 -32 22 -11
21 29 17 -1 -4 -32 -34 -49 -34 -52 -6 -62 30 -12 24 -24 -18 -34 -19 -4 -28
-2 -28 6 0 8 -6 6 -17 -4 -14 -14 -15 -22 -5 -43 16 -36 16 -73 0 -57 -16 16
-58 15 -59 0 0 -7 -3 -43 -7 -79 l-8 -66 33 16 c29 14 33 21 33 59 l0 42 40 0
c40 0 53 13 25 24 -12 4 -13 10 -3 32 l12 26 9 -26 c5 -14 16 -26 24 -26 12 0
14 8 10 38 -4 24 -1 43 8 56 14 18 14 18 14 0 2 -67 17 -65 23 3 2 27 -1 44
-8 47 -7 3 -10 14 -7 26 4 16 8 18 19 9 8 -6 14 -19 14 -28 0 -32 48 76 55
124 10 63 39 122 65 130 11 4 18 11 15 16 -4 5 -48 32 -100 60 l-94 50 -7 47
c-3 26 -14 91 -23 144 l-17 98 24 22 c13 13 38 41 55 62 l31 39 -45 -5 c-52
-6 -92 13 -71 34 9 9 12 9 12 0 0 -17 25 -15 40 3 11 13 10 15 -6 13 -11 -2
-21 2 -24 7 -3 6 5 11 18 13 12 2 22 8 22 13 0 6 6 7 13 2 18 -11 77 -13 77
-3 0 5 6 7 13 4 27 -10 60 69 33 79 -6 3 -46 19 -89 36 l-78 32 -26 -31 c-14
-17 -28 -28 -31 -25 -3 3 4 14 16 25 29 28 28 36 -9 49 -43 15 -45 14 -24 -9
18 -19 17 -20 -7 -20 -14 0 -35 12 -50 28 -30 32 -54 93 -35 89 16 -3 11 20
-25 120 -25 69 -33 82 -44 72 -10 -8 -14 -8 -14 0 0 6 -6 11 -13 11 -22 0 -43
31 -55 81 -7 26 -15 55 -18 65 -6 16 -5 17 7 6 8 -7 25 -41 39 -75 39 -96 65
-83 159 84 31 56 31 57 10 62 -19 5 -20 8 -9 22 11 14 14 14 24 -1 10 -13 14
-10 29 21 10 20 15 41 12 46 -8 12 -35 12 -35 -1 0 -5 -4 -10 -10 -10 -5 0
-10 7 -10 15 0 16 -36 27 -165 49 -111 20 -104 20 -98 -5 7 -24 -11 -39 -46
-39 -21 0 -23 -3 -17 -30 5 -28 4 -30 -14 -20 -23 12 -35 30 -21 30 13 0 15
37 3 44 -12 7 -13 64 -1 72 6 3 0 14 -12 25 -25 22 -17 39 10 22 10 -6 23 -8
30 -4 8 5 -3 34 -38 96 l-49 89 18 35 c36 72 70 181 57 181 -7 0 -18 -5 -25
-12 -15 -15 -26 -4 -18 18 4 11 14 15 31 11 30 -5 42 8 25 28 -10 12 -9 15 4
15 21 0 21 39 1 46 -8 4 -22 0 -31 -7 -13 -10 -17 -10 -24 2 -7 11 -38 14
-137 16 l-127 1 -68 84 c-38 45 -79 97 -93 113 l-24 31 23 114 c44 216 43 235
-5 210 -14 -8 -19 -7 -19 1 0 13 -62 8 -198 -17 -69 -12 -87 -13 -100 -2 -12
10 -14 10 -8 1 4 -7 3 -13 -2 -13 -6 0 -13 11 -16 25 -4 14 -16 31 -29 40 -12
8 -51 41 -85 73 l-64 59 2 168 1 168 -45 -6 c-25 -4 -99 -25 -166 -47 l-120
-41 -113 68 c-61 37 -119 73 -128 80 -11 10 -18 39 -23 97 -3 46 -10 94 -14
106 -7 20 -9 20 -21 6 -8 -9 -22 -16 -32 -16 -11 0 -19 -4 -19 -10 0 -5 -11
-10 -25 -10 -22 0 -24 -3 -16 -18 20 -37 -21 -53 -72 -29 -38 17 -31 41 13 41
42 1 51 31 10 31 -19 1 -24 6 -23 20 1 11 0 15 -3 8 -3 -7 -12 -9 -21 -6 -8 3
-19 0 -24 -8 -7 -11 -9 -11 -9 4 0 9 -7 17 -15 17 -13 0 -14 -4 -5 -21 9 -15
8 -24 -2 -37 -22 -28 -41 -40 -56 -35 -7 3 -20 -4 -28 -16 -19 -27 -34 -27
-27 -1 3 11 9 20 14 20 5 0 9 5 9 10 0 6 -20 10 -45 10 -42 0 -58 -11 -35 -25
19 -11 10 -25 -15 -25 -15 0 -36 -11 -51 -27 -18 -20 -24 -23 -20 -10 19 59
19 68 -2 74 -20 5 -34 31 -36 68 -1 27 -50 34 -60 9z m404 -149 c-13 -15 -11
-17 15 -13 22 2 30 -1 30 -12 0 -27 -39 -22 -70 10 -28 29 -28 30 -9 44 16 13
21 13 33 1 12 -12 12 -17 1 -30z m-317 28 c2 -5 -2 -18 -8 -31 -11 -20 -14
-21 -25 -7 -10 12 -10 18 0 30 14 16 27 19 33 8z m127 -27 c0 -29 -10 -39 -27
-25 -16 14 -17 46 0 52 18 7 27 -2 27 -27z m273 7 c-7 -2 -19 -2 -25 0 -7 3
-2 5 12 5 14 0 19 -2 13 -5z m-147 -53 c-1 -25 -3 -27 -15 -15 -7 7 -11 21 -8
29 10 26 24 18 23 -14z m64 -131 c0 -6 -4 -7 -10 -4 -5 3 -10 11 -10 16 0 6 5
7 10 4 6 -3 10 -11 10 -16z m868 -477 c4 -34 -8 -41 -28 -17 -8 9 -21 13 -32
9 -16 -5 -18 -1 -16 29 l2 35 35 -13 c30 -10 37 -17 39 -43z m393 -73 c18 -26
19 -28 2 -22 -21 7 -63 43 -63 54 0 16 42 -6 61 -32z m-90 0 c8 -16 8 -20 -1
-14 -6 4 -20 -1 -30 -10 -10 -9 -24 -14 -30 -10 -9 6 -9 10 1 16 8 4 15 13 15
19 3 18 4 20 19 20 8 0 19 -10 26 -21z m-91 -52 c0 -4 -11 -5 -24 -1 -13 3
-27 1 -30 -5 -9 -14 -53 -14 -61 -1 -10 16 -25 12 -25 -7 0 -15 -2 -14 -15 3
-28 37 -17 40 59 17 14 -4 18 -1 13 10 -8 22 22 26 55 7 16 -8 28 -18 28 -23z
m75 -19 c0 -41 -25 -55 -42 -24 -9 17 -8 24 4 39 24 26 38 21 38 -15z m91 -25
c-10 -10 -19 5 -10 18 6 11 8 11 12 0 2 -7 1 -15 -2 -18z m-168 -36 c3 -14 -5
-17 -37 -17 -48 0 -58 26 -13 33 38 5 47 3 50 -16z m223 -210 c-13 -13 -26 -3
-16 12 3 6 11 8 17 5 6 -4 6 -10 -1 -17z m427 -274 c-2 -13 -7 -24 -13 -24 -5
0 -11 11 -13 24 -2 16 2 24 13 24 11 0 15 -8 13 -24z m-113 -232 c3 -5 -8 -9
-25 -9 -16 1 -30 5 -30 10 0 11 47 10 55 -1z m29 -150 c3 -4 3 -11 0 -14 -8
-8 -34 3 -34 14 0 11 27 12 34 0z m66 -32 c0 -6 -4 -7 -10 -4 -5 3 -10 11 -10
16 0 6 5 7 10 4 6 -3 10 -11 10 -16z m287 -79 c30 0 37 -27 10 -36 -12 -4 -26
-12 -30 -18 -6 -7 -7 -5 -3 6 3 11 -2 19 -15 23 -10 4 -19 13 -19 21 0 8 -10
14 -22 15 -22 1 -22 1 2 8 16 5 31 3 41 -6 8 -7 25 -13 36 -13z m-176 -133
c-10 -9 -11 -8 -5 6 3 10 9 15 12 12 3 -3 0 -11 -7 -18z m313 4 c3 -5 -3 -20
-14 -34 -11 -14 -20 -29 -20 -34 -1 -16 -36 -52 -55 -55 -16 -2 -20 3 -20 27
0 22 -4 30 -17 29 -11 -1 -18 5 -18 17 0 14 7 19 25 19 18 0 25 -5 25 -20 0
-11 2 -20 4 -20 13 0 36 13 36 20 0 40 39 76 54 51z m-274 -221 c0 -11 5 -20
10 -20 6 0 10 -4 10 -10 0 -11 -30 -14 -30 -2 0 4 -3 17 -6 30 -4 13 -2 22 5
22 6 0 11 -9 11 -20z m316 -339 c-12 -19 -24 -12 -19 10 4 13 9 17 15 11 6 -6
7 -15 4 -21z m154 -16 c10 -12 6 -20 -19 -46 -26 -25 -34 -29 -46 -19 -18 15
-20 66 -2 73 24 10 55 7 67 -8z m-140 -19 c0 -7 -6 -19 -14 -25 -19 -16 -32 5
-16 24 16 19 30 19 30 1z m213 -26 c3 -11 1 -20 -4 -20 -5 0 -9 2 -9 4 0 2 -3
11 -6 20 -3 9 -2 16 4 16 5 0 12 -9 15 -20z m-213 -56 c0 -2 -9 -4 -20 -4 -11
0 -20 4 -20 9 0 5 9 7 20 4 11 -3 20 -7 20 -9z m-116 -99 c-4 -8 -10 -12 -15
-9 -14 8 -10 24 6 24 9 0 12 -6 9 -15z m2 -49 c1 -14 -4 -27 -12 -30 -18 -7
-23 5 -13 32 11 29 24 28 25 -2z m144 -76 c0 -5 -4 -10 -10 -10 -5 0 -10 5
-10 10 0 6 5 10 10 10 6 0 10 -4 10 -10z m-106 -111 c-1 -11 5 -15 16 -12 11
3 19 -3 23 -16 4 -17 2 -19 -13 -11 -10 6 -26 7 -35 4 -19 -8 -35 11 -35 39 0
13 6 18 23 15 13 -2 22 -10 21 -19z m93 -76 c-4 -17 -4 -17 -12 0 -4 9 -4 25
0 35 8 16 8 16 12 0 3 -10 3 -26 0 -35z m-52 -3 c-3 -5 -14 -10 -23 -9 -14 0
-13 2 3 9 27 11 27 11 20 0z m-25 -54 c0 -3 -4 -8 -10 -11 -5 -3 -10 -1 -10 4
0 6 5 11 10 11 6 0 10 -2 10 -4z m30 -62 c0 -8 -5 -12 -10 -9 -6 4 -8 11 -5
16 9 14 15 11 15 -7z m178 -89 c-3 -3 -9 2 -12 12 -6 14 -5 15 5 6 7 -7 10
-15 7 -18z m-28 -195 c0 -5 -2 -10 -4 -10 -3 0 -8 5 -11 10 -3 6 -1 10 4 10 6
0 11 -4 11 -10z"/>
<path d="M7492 9058 c3 -7 15 -15 28 -16 21 -3 22 -2 11 12 -16 19 -44 21 -39
4z"/>
<path d="M7464 9006 c-8 -33 1 -56 21 -56 13 0 15 6 10 33 -10 45 -23 55 -31
23z"/>
<path d="M5775 8979 c-620 -63 -1184 -261 -1690 -594 -392 -257 -721 -575
-992 -957 -548 -773 -777 -1729 -642 -2678 12 -80 27 -159 34 -177 22 -53 98
-58 131 -8 14 22 14 34 -5 152 -11 70 -25 178 -32 238 -15 146 -15 510 0 660
72 709 331 1343 777 1902 102 128 402 428 529 529 534 426 1134 683 1795 770
195 25 580 30 780 9 730 -74 1384 -350 1940 -816 151 -127 403 -386 514 -529
393 -506 636 -1070 725 -1685 49 -332 49 -688 1 -1015 -26 -177 -26 -205 2
-224 30 -21 71 -20 98 2 46 37 84 362 84 722 1 435 -50 765 -180 1163 -453
1388 -1685 2381 -3142 2531 -163 17 -582 20 -727 5z"/>
<path d="M5405 8107 c-102 -34 -172 -91 -216 -177 -20 -38 -24 -60 -24 -141 0
-92 1 -98 42 -181 86 -173 215 -308 365 -383 50 -25 96 -45 103 -45 9 0 4 21
-16 70 -34 81 -46 153 -30 192 27 72 154 77 331 14 370 -132 455 -150 655
-144 75 2 138 9 150 16 16 9 4 11 -72 12 -173 0 -285 32 -533 150 -91 43 -199
90 -240 104 -147 48 -294 52 -343 8 -46 -41 -61 -140 -32 -222 22 -63 -4 -36
-46 46 -42 83 -47 165 -13 211 55 74 149 102 285 84 121 -16 217 -49 419 -146
273 -130 425 -170 634 -163 108 3 127 6 178 31 90 44 124 112 107 217 -30 191
-224 325 -499 345 -88 6 -83 1 19 -19 95 -20 188 -63 244 -116 54 -49 77 -94
77 -150 0 -34 -6 -48 -33 -75 -81 -81 -253 -67 -462 37 -70 35 -370 216 -448
270 -47 33 -213 115 -279 138 -79 28 -261 37 -323 17z"/>
<path d="M2455 7463 c-16 -2 -61 -8 -99 -14 -67 -11 -68 -12 -63 -39 6 -27 47
-121 66 -150 6 -8 20 -39 32 -68 23 -56 56 -82 104 -82 24 0 26 -2 19 -37 -8
-48 -9 -48 -38 -35 -23 10 -25 9 -28 -16 -2 -19 -8 -27 -20 -26 -13 1 -18 -5
-18 -22 0 -34 -17 -38 -33 -8 l-14 26 -23 -57 c-25 -62 -69 -115 -95 -115 -23
0 -30 -28 -11 -49 23 -25 21 -28 -29 -50 -25 -11 -45 -26 -45 -34 0 -20 -77
-54 -92 -39 -8 8 -4 14 15 23 15 7 27 18 27 26 0 18 -55 17 -74 -3 -20 -19
-14 -31 67 -139 32 -43 61 -85 64 -91 3 -7 11 -10 19 -7 23 9 16 -30 -14 -77
-2 -2 -7 2 -12 10 -11 17 -33 -60 -24 -84 3 -9 1 -23 -5 -30 -9 -10 -9 -16 -1
-21 7 -4 14 2 17 14 6 23 18 27 28 11 11 -19 25 1 25 35 0 19 5 37 10 40 6 3
10 19 10 35 0 39 17 47 32 15 10 -22 9 -28 -3 -36 -11 -7 -10 -9 5 -9 11 0 30
9 42 21 26 24 41 19 56 -19 9 -25 14 -14 58 118 67 203 122 340 212 523 42 86
73 157 67 157 -5 0 -17 -16 -25 -35 -17 -41 -23 -42 -81 -14 -63 30 -110 99
-68 99 8 0 15 5 15 11 0 6 -9 9 -20 6 -15 -4 -20 0 -20 14 0 14 -7 19 -28 19
-16 0 -37 6 -47 14 -17 12 -18 17 -7 40 16 36 15 46 -4 46 -27 0 -11 35 16 36
15 0 40 15 62 37 24 25 30 36 20 36 -10 -1 -30 -4 -47 -6z m31 -330 c-3 -3
-12 0 -21 7 -14 12 -14 15 2 33 18 19 18 19 21 -8 2 -15 1 -29 -2 -32z m55
-158 c-1 -15 -24 -12 -29 3 -3 9 2 13 12 10 10 -1 17 -7 17 -13z m-181 -114
c0 -15 -28 -33 -40 -26 -8 5 -8 11 1 21 13 15 39 19 39 5z m-140 -243 c-1 -7
-10 -24 -21 -37 -16 -19 -22 -22 -32 -12 -9 10 -8 14 6 22 9 6 23 16 30 24 15
18 17 18 17 3z"/>
<path d="M9740 7190 c0 -9 39 -25 45 -18 2 2 -7 8 -21 15 -13 6 -24 7 -24 3z"/>
<path d="M2410 7070 c0 -5 7 -10 16 -10 8 0 12 5 9 10 -3 6 -10 10 -16 10 -5
0 -9 -4 -9 -10z"/>
<path d="M5435 7009 c-303 -17 -571 -61 -666 -109 -41 -21 -69 -54 -69 -81 0
-72 181 -158 450 -213 63 -13 108 -25 100 -25 -57 -3 -752 91 -844 115 -15 3
-26 2 -26 -4 0 -11 279 -106 430 -146 514 -138 1177 -204 1768 -178 239 11
495 31 593 47 l36 6 -8 -68 c-28 -233 -124 -499 -247 -682 -229 -340 -596
-524 -1047 -524 -326 0 -610 105 -885 329 -253 205 -494 548 -595 845 -41 123
-47 94 -11 -56 46 -190 118 -358 231 -540 235 -380 485 -604 800 -715 427
-150 862 -128 1270 65 238 112 467 337 657 643 201 326 352 538 462 648 113
114 187 139 230 81 18 -24 21 -42 20 -115 -3 -171 -92 -362 -198 -422 -63 -36
-81 -37 -102 -5 -27 42 5 143 55 170 25 14 25 14 -23 15 -61 0 -128 -30 -160
-74 -59 -78 -78 -231 -39 -318 26 -57 49 -70 128 -71 88 -1 156 34 239 124
226 244 299 723 137 902 -20 22 -50 46 -68 54 -94 39 -250 -10 -388 -122 l-40
-32 3 138 c2 77 0 139 -4 139 -4 0 -50 -17 -103 -39 -181 -72 -408 -131 -683
-176 -195 -32 -210 -31 -70 5 184 47 293 95 327 142 77 110 -131 190 -607 233
-208 19 -825 27 -1053 14z"/>
<path d="M2125 6789 c-7 -20 -16 -21 -57 -4 -26 10 -23 -12 3 -25 33 -18 69
-4 69 25 0 30 -6 32 -15 4z"/>
<path d="M2160 6775 c0 -8 5 -15 10 -15 6 0 10 7 10 15 0 8 -4 15 -10 15 -5 0
-10 -7 -10 -15z"/>
<path d="M2297 6304 c-15 -19 -45 -43 -67 -54 -21 -11 -46 -30 -55 -42 -11
-15 -19 -19 -22 -11 -2 7 -13 23 -23 35 -16 19 -19 20 -20 6 0 -10 9 -32 20
-50 23 -38 26 -68 6 -68 -7 0 -31 -21 -52 -47 l-38 -46 33 6 c18 4 47 17 64
29 21 15 32 18 35 10 2 -7 9 -12 16 -12 7 0 20 -6 31 -13 17 -13 17 -15 0 -61
-14 -37 -16 -52 -7 -71 10 -21 7 -28 -21 -57 -18 -19 -45 -51 -60 -71 -21 -28
-35 -37 -57 -37 -39 0 -40 -27 -4 -90 19 -33 24 -53 19 -77 -5 -28 -3 -33 14
-33 11 0 33 8 50 18 28 15 33 15 41 2 9 -13 11 -13 20 0 5 8 12 33 14 55 3 22
13 99 22 170 15 124 52 322 75 408 8 32 8 42 -6 57 -16 18 -5 38 14 26 5 -3
12 1 15 10 8 21 8 39 -1 31 -3 -4 -11 -3 -17 3 -8 6 -21 -2 -39 -26z m-7 -159
c-7 -8 -16 -15 -21 -15 -5 0 -1 9 8 20 9 11 19 17 21 15 3 -3 -1 -11 -8 -20z"/>
<path d="M2210 6275 c0 -8 5 -15 10 -15 6 0 10 7 10 15 0 8 -4 15 -10 15 -5 0
-10 -7 -10 -15z"/>
<path d="M10295 6280 c3 -5 8 -10 11 -10 2 0 4 5 4 10 0 6 -5 10 -11 10 -5 0
-7 -4 -4 -10z"/>
<path d="M6881 6206 l-64 -11 -22 -75 c-107 -362 -319 -649 -575 -780 -25 -13
-40 -25 -34 -27 19 -6 129 34 223 82 299 151 503 399 584 709 31 122 26 126
-112 102z"/>
<path d="M1998 6142 c-32 -14 -58 -31 -58 -38 0 -6 -9 -23 -21 -38 -17 -21
-24 -24 -35 -15 -8 6 -11 15 -8 20 12 20 -19 7 -41 -17 -13 -14 -29 -23 -34
-19 -24 14 -9 -17 25 -55 20 -22 45 -40 56 -40 27 0 58 18 58 35 0 7 22 42 48
77 49 64 76 107 70 113 -2 1 -29 -9 -60 -23z"/>
<path d="M2070 6160 c0 -5 5 -10 10 -10 6 0 10 5 10 10 0 6 -4 10 -10 10 -5 0
-10 -4 -10 -10z"/>
<path d="M2177 6022 c-36 -40 -10 -84 27 -46 19 19 20 25 3 48 -12 16 -14 16
-30 -2z"/>
<path d="M1979 5983 c-60 -64 -82 -103 -57 -103 18 0 108 102 108 122 0 27
-12 22 -51 -19z"/>
<path d="M1960 5852 c0 -13 23 -32 39 -32 11 0 10 4 -4 20 -19 21 -35 26 -35
12z"/>
<path d="M2080 5810 c0 -5 5 -10 10 -10 6 0 10 5 10 10 0 6 -4 10 -10 10 -5 0
-10 -4 -10 -10z"/>
<path d="M10486 5672 c-3 -6 -1 -14 5 -17 15 -10 25 3 12 16 -7 7 -13 7 -17 1z"/>
<path d="M2012 5620 c0 -19 2 -27 5 -17 2 9 2 25 0 35 -3 9 -5 1 -5 -18z"/>
<path d="M10066 5595 c-4 -22 -10 -53 -13 -70 l-5 -30 22 20 c26 23 35 39 44
80 6 24 5 28 -5 18 -18 -18 -27 -16 -32 5 -2 9 -7 -1 -11 -23z"/>
<path d="M2120 5491 c0 -29 1 -30 33 -19 42 14 42 15 27 33 -7 8 -23 15 -36
15 -20 0 -24 -5 -24 -29z"/>
<path d="M2180 5440 c0 -6 -16 -20 -36 -32 -36 -21 -36 -22 -30 -72 20 -152
20 -166 -1 -166 -11 0 -29 10 -40 23 -19 19 -20 25 -9 52 11 25 10 32 -2 41
-12 9 -13 17 -4 44 17 47 15 60 -8 60 -15 0 -22 -9 -27 -30 -5 -30 -6 -30 -54
-24 -35 5 -49 3 -49 -5 0 -26 -45 -6 -54 24 -6 17 -11 32 -13 34 -1 2 -13 -6
-27 -16 -19 -15 -22 -23 -13 -32 6 -6 17 -11 24 -11 19 0 16 -24 -8 -54 l-20
-26 42 -50 c23 -27 56 -58 74 -69 30 -18 34 -18 50 -2 16 15 17 14 10 -8 -4
-15 -3 -26 5 -31 7 -4 15 -29 18 -56 6 -60 41 -113 111 -172 48 -41 65 -72 39
-72 -6 0 -20 7 -30 17 -10 9 -28 21 -40 27 -14 7 -26 26 -31 49 -12 50 -37 50
-37 0 0 -71 8 -83 51 -83 22 0 39 -2 39 -3 0 -14 -34 -67 -43 -67 -6 0 -21 10
-34 22 -20 19 -25 20 -34 8 -18 -29 -21 -62 -8 -88 7 -15 15 -31 18 -36 2 -5
-6 -6 -18 -3 -21 5 -22 3 -20 -64 1 -38 -1 -73 -5 -76 -16 -16 -39 29 -45 89
l-6 63 -29 -30 c-16 -16 -35 -45 -43 -63 -13 -31 -12 -35 4 -48 10 -7 24 -11
31 -9 6 2 12 0 12 -6 0 -9 121 -71 127 -65 2 1 -1 17 -6 34 -10 34 3 46 14 12
6 -19 7 -19 36 2 37 28 37 41 -1 33 -19 -4 -30 -3 -30 4 0 17 59 49 80 44 15
-4 20 3 26 43 5 33 3 49 -5 52 -6 2 -11 12 -11 22 0 14 -6 17 -22 13 -14 -3
-18 -1 -12 4 7 4 14 19 15 33 6 43 33 29 50 -25 13 -42 20 -51 42 -53 32 -4
31 -11 12 132 -8 61 -13 111 -11 113 1 2 11 -6 21 -17 26 -28 32 -25 27 14 -3
22 -10 36 -22 39 -10 2 -26 16 -35 31 -14 21 -15 29 -5 41 11 14 15 14 32 -2
19 -17 19 -15 12 122 -7 134 -8 140 -33 160 -14 11 -34 25 -45 30 -30 15 -30
32 1 37 15 3 36 9 46 13 16 7 18 4 12 -28 -4 -21 -3 -37 4 -41 8 -5 11 16 11
68 0 65 -3 77 -20 86 -14 8 -20 8 -20 0z m-175 -160 c-5 -8 -11 -8 -17 -2 -6
6 -7 16 -3 22 5 8 11 8 17 2 6 -6 7 -16 3 -22z m-55 6 c0 -16 -18 -31 -27 -22
-8 8 5 36 17 36 5 0 10 -6 10 -14z m240 -210 c0 -16 -18 -31 -27 -22 -8 8 5
36 17 36 5 0 10 -6 10 -14z m-30 -66 c0 -12 -28 -20 -45 -14 -15 6 -19 16 -10
26 8 7 55 -3 55 -12z m-20 -82 c0 -30 -1 -31 -19 -14 -16 14 -17 21 -8 32 19
21 27 16 27 -18z m-245 -368 c3 -5 1 -10 -4 -10 -6 0 -11 5 -11 10 0 6 2 10 4
10 3 0 8 -4 11 -10z"/>
<path d="M10227 5284 c-3 -3 -3 -12 0 -19 6 -17 33 -8 33 11 0 14 -21 19 -33
8z"/>
<path d="M10160 5240 c-6 -11 -8 -20 -6 -20 3 0 10 9 16 20 6 11 8 20 6 20 -3
0 -10 -9 -16 -20z"/>
<path d="M2101 5214 c0 -11 3 -14 6 -6 3 7 2 16 -1 19 -3 4 -6 -2 -5 -13z"/>
<path d="M10227 5212 c-21 -23 -22 -46 -2 -62 22 -18 35 -3 35 41 0 43 -8 48
-33 21z"/>
<path d="M10171 5134 c0 -11 3 -14 6 -6 3 7 2 16 -1 19 -3 4 -6 -2 -5 -13z"/>
<path d="M10265 5120 c3 -5 8 -10 11 -10 2 0 4 5 4 10 0 6 -5 10 -11 10 -5 0
-7 -4 -4 -10z"/>
<path d="M10122 5098 c-14 -14 -16 -38 -3 -38 10 0 26 39 19 46 -2 2 -10 -2
-16 -8z"/>
<path d="M10243 5070 c0 -25 4 -40 12 -40 20 0 25 26 12 54 -17 37 -24 32 -24
-14z"/>
<path d="M10300 5070 c0 -20 13 -40 26 -40 22 0 16 37 -6 43 -11 3 -20 1 -20
-3z"/>
<path d="M10102 5010 c-13 -28 -35 -43 -29 -19 1 6 -8 15 -20 20 -18 6 -23 5
-23 -6 0 -8 7 -15 15 -15 8 0 15 -9 15 -20 0 -18 4 -21 28 -20 12 1 20 -84 8
-92 -20 -14 18 -8 46 6 26 14 27 13 30 -12 2 -17 10 -28 22 -30 12 -3 16 0 11
7 -8 14 13 43 26 35 5 -3 6 -16 3 -30 -4 -14 -2 -24 5 -24 6 0 11 5 11 11 0
19 52 79 63 72 5 -3 7 -1 4 4 -4 6 0 13 8 17 8 3 15 12 15 19 0 9 -15 0 -36
-20 -24 -22 -42 -32 -53 -28 -9 4 -31 9 -48 12 -19 3 -33 12 -33 20 0 8 5 11
12 7 7 -4 8 -3 4 4 -4 7 -17 9 -30 6 -19 -4 -25 -1 -30 20 -9 36 -8 41 7 41 6
0 13 10 15 23 5 34 -30 29 -46 -8z"/>
<path d="M10390 5025 c0 -16 22 -45 31 -40 15 10 11 23 -11 35 -11 6 -20 8
-20 5z"/>
<path d="M10360 5009 c0 -5 5 -7 10 -4 6 3 10 8 10 11 0 2 -4 4 -10 4 -5 0
-10 -5 -10 -11z"/>
<path d="M10020 4935 c0 -22 5 -35 13 -35 9 0 12 11 9 35 -2 19 -8 35 -13 35
-5 0 -9 -16 -9 -35z"/>
<path d="M10220 4930 c-9 -17 -8 -20 8 -20 18 0 42 18 42 32 0 17 -40 7 -50
-12z"/>
<path d="M10130 4829 c0 -5 -11 -11 -25 -15 -14 -3 -22 -10 -20 -15 3 -5 -1
-22 -10 -40 -9 -17 -14 -33 -11 -37 10 -10 96 -7 94 3 -1 6 3 20 10 32 10 19
9 20 -8 16 -11 -3 -20 0 -20 6 0 6 9 11 20 11 28 0 25 23 -5 37 -14 6 -25 7
-25 2z"/>
<path d="M10018 4823 c10 -4 9 -8 -4 -17 -14 -10 -15 -20 -7 -57 11 -57 6 -92
-13 -85 -10 4 -14 -4 -14 -30 l0 -35 26 20 c15 12 32 21 38 21 6 0 16 16 22
34 10 32 9 34 -7 26 -23 -13 -46 38 -30 68 17 32 14 62 -6 61 -12 0 -13 -2 -5
-6z"/>
<path d="M2240 4667 c0 -21 8 -41 20 -52 24 -21 26 -11 9 48 -12 46 -29 48
-29 4z"/>
<path d="M10100 4665 c0 -36 3 -40 25 -40 20 0 24 4 19 20 -3 11 -15 29 -25
40 -19 19 -19 19 -19 -20z"/>
<path d="M10160 4679 c0 -24 23 -21 28 4 2 10 -3 17 -12 17 -10 0 -16 -9 -16
-21z"/>
<path d="M10080 4595 c0 -9 11 -20 25 -25 26 -10 36 -52 15 -65 -6 -4 -10 5
-10 19 0 15 -6 26 -14 26 -11 0 -15 -31 -6 -50 1 -3 3 -12 4 -20 1 -17 36 -27
36 -11 0 6 12 11 26 11 26 0 26 1 19 48 -8 53 -13 65 -25 57 -4 -3 -13 2 -20
10 -16 20 -50 19 -50 0z"/>
<path d="M10187 4603 c-3 -5 -1 -17 4 -28 7 -17 8 -17 8 8 1 27 -4 34 -12 20z"/>
<path d="M5545 4589 c-1297 -67 -2853 -362 -4232 -805 -213 -68 -223 -74 -223
-131 0 -45 25 -73 67 -73 20 0 125 29 233 65 968 316 2224 590 3275 714 548
65 912 86 1475 86 458 -1 631 -7 1030 -40 1123 -94 2389 -346 3537 -706 122
-38 231 -69 242 -69 53 0 84 96 44 132 -28 24 -409 144 -783 247 -1188 325
-2401 526 -3519 581 -235 12 -911 11 -1146 -1z"/>
<path d="M1802 4563 c-8 -14 -9 -24 -2 -28 12 -7 24 18 18 37 -3 8 -9 5 -16
-9z"/>
<path d="M2238 4535 c3 -30 9 -45 18 -45 8 0 14 7 14 16 0 14 2 15 17 3 15
-13 16 -11 9 16 -9 35 -14 41 -41 49 -18 5 -20 2 -17 -39z"/>
<path d="M9964 4524 c4 -9 1 -23 -5 -30 -14 -17 -3 -34 22 -34 23 0 23 -1 4
44 -15 35 -34 53 -21 20z"/>
<path d="M10143 4430 c-30 -12 -29 -20 1 -20 13 0 26 7 30 15 6 17 1 18 -31 5z"/>
<path d="M5668 4091 c-185 -9 -339 -19 -343 -23 -4 -4 18 -21 48 -38 31 -17
60 -37 67 -45 12 -14 65 -1075 55 -1104 -3 -9 -30 -33 -60 -54 -30 -21 -55
-43 -55 -49 0 -7 19 -8 53 -5 28 4 191 12 361 19 244 9 309 15 313 26 8 20
-11 439 -20 448 -14 14 -28 -13 -92 -181 -36 -93 -72 -176 -80 -184 -10 -11
-45 -17 -110 -21 -80 -4 -95 -3 -96 10 0 8 -6 126 -12 263 l-12 247 40 0 c38
0 44 -4 95 -70 30 -38 61 -70 68 -70 11 0 12 27 7 143 -7 178 -14 247 -24 247
-5 0 -31 -33 -60 -74 -45 -65 -55 -74 -86 -78 -20 -2 -38 -1 -40 3 -7 10 -28
489 -23 494 3 3 42 8 86 12 67 5 86 3 107 -11 17 -11 54 -73 108 -181 97 -196
116 -210 110 -82 -3 45 -7 147 -11 227 l-7 145 -25 1 c-14 1 -177 -6 -362 -15z"/>
<path d="M6562 4091 c2 -5 27 -27 56 -50 46 -37 52 -46 52 -79 0 -77 -82
-1038 -90 -1059 -5 -13 -36 -36 -71 -53 -34 -18 -58 -35 -53 -40 10 -9 398
-44 435 -38 22 3 18 7 -33 46 -31 24 -58 49 -61 56 -7 16 33 499 42 508 6 7
230 -8 257 -16 11 -4 -26 -492 -40 -514 -4 -7 -34 -26 -67 -42 -62 -32 -75
-50 -35 -50 13 0 105 -7 205 -16 99 -8 193 -14 208 -12 27 3 26 4 -29 46 -31
24 -59 49 -61 57 -3 7 15 255 39 552 34 402 49 542 60 554 8 8 37 26 64 39 28
13 49 28 47 34 -4 12 -435 51 -446 40 -3 -3 10 -18 28 -33 19 -14 46 -36 60
-47 l25 -21 -18 -239 c-10 -132 -22 -242 -26 -247 -7 -8 -252 11 -261 21 -9
10 29 452 41 480 5 12 34 34 65 49 30 15 54 32 52 38 -2 5 -86 17 -193 27
-224 20 -257 21 -252 9z"/>
<path d="M4805 4019 c-181 -21 -336 -38 -342 -39 -28 -1 -10 -17 52 -48 45
-22 66 -38 70 -54 8 -38 115 -1020 115 -1058 0 -31 -7 -41 -57 -80 -54 -42
-56 -45 -33 -49 14 -2 179 14 368 35 l342 38 -1 41 c0 22 -10 123 -22 225 -18
147 -25 185 -38 188 -11 2 -20 -13 -31 -50 -99 -324 -97 -319 -131 -333 -18
-7 -66 -16 -107 -19 l-75 -7 -29 256 c-16 141 -27 258 -24 260 2 3 18 7 34 11
26 5 36 -2 98 -65 37 -39 72 -71 77 -71 12 0 12 -2 -11 195 -11 94 -20 176
-20 183 0 31 -29 5 -68 -63 -24 -41 -47 -77 -50 -79 -4 -2 -23 -6 -42 -8 l-35
-3 -27 249 c-15 137 -27 250 -25 252 8 8 174 21 191 14 13 -5 58 -71 115 -170
86 -147 112 -182 127 -167 3 3 -4 88 -15 188 -32 278 -30 269 -55 268 -11 -1
-169 -19 -351 -40z"/>
<path d="M3961 3900 c-188 -32 -346 -61 -349 -65 -9 -9 9 -21 61 -40 27 -10
54 -28 62 -39 7 -12 52 -261 100 -555 l89 -534 -55 -48 c-30 -26 -50 -51 -46
-55 6 -7 353 44 435 63 37 9 21 24 -45 44 -33 11 -66 26 -73 35 -12 14 -89
439 -90 492 0 19 5 22 38 22 33 0 45 -8 97 -60 60 -61 85 -73 85 -44 0 17 -46
300 -55 342 -9 39 -30 24 -66 -49 -19 -39 -43 -78 -54 -85 -27 -19 -63 -18
-69 4 -10 37 -79 472 -75 476 9 9 176 29 192 23 9 -3 62 -75 118 -159 56 -84
107 -156 113 -160 27 -18 26 22 -5 208 -33 203 -43 245 -56 243 -5 -1 -163
-27 -352 -59z"/>
<path d="M7842 3931 c-142 -49 -228 -205 -282 -511 -27 -156 -38 -404 -20
-492 13 -72 50 -151 87 -190 14 -14 53 -39 86 -54 84 -37 196 -39 275 -5 128
57 215 233 267 539 72 422 11 649 -190 711 -82 26 -153 26 -223 2z m162 -77
c29 -11 56 -71 66 -147 11 -92 0 -243 -35 -452 -51 -303 -110 -465 -187 -506
-26 -14 -65 9 -85 50 -25 50 -25 327 0 491 64 410 145 601 241 564z"/>
<path d="M8480 3857 c0 -7 20 -33 45 -57 25 -24 45 -51 45 -60 0 -8 -47 -233
-105 -500 -58 -267 -105 -503 -105 -525 0 -98 95 -170 275 -210 144 -32 286
-2 327 70 9 17 62 242 118 500 55 259 105 486 111 506 9 38 38 59 102 74 26 7
44 22 35 31 -4 3 -370 84 -383 84 -17 0 1 -32 40 -70 25 -24 45 -50 45 -57 0
-39 -203 -955 -220 -990 -25 -54 -68 -78 -123 -69 -78 13 -121 55 -119 116 1
51 203 973 218 997 7 11 36 29 64 38 46 15 68 30 58 40 -3 4 -412 95 -424 95
-2 0 -4 -6 -4 -13z"/>
<path d="M3107 3733 c-186 -42 -336 -81 -334 -86 1 -5 28 -19 59 -31 32 -11
62 -25 67 -31 10 -11 241 -1035 241 -1070 0 -12 -20 -41 -45 -65 -49 -48 -54
-60 -28 -60 42 0 443 95 440 104 -2 6 -34 18 -71 27 -38 10 -72 21 -77 26 -7
7 -119 485 -119 506 0 3 16 7 36 10 34 6 42 2 106 -53 73 -64 88 -71 88 -42
-1 43 -77 356 -88 360 -7 2 -28 -32 -51 -81 -35 -75 -43 -86 -71 -92 -18 -4
-35 -3 -39 1 -10 12 -112 476 -106 482 10 11 170 42 186 37 10 -4 70 -76 134
-161 102 -137 146 -180 144 -141 0 6 -21 107 -47 222 -42 184 -50 210 -67 212
-11 1 -172 -33 -358 -74z"/>
<path d="M9512 3599 c-95 -22 -146 -123 -146 -284 1 -108 22 -194 99 -404 72
-198 95 -289 95 -376 0 -59 -4 -78 -23 -106 -21 -30 -28 -34 -65 -33 -102 2
-173 139 -198 377 -3 36 -10 57 -18 57 -14 0 -134 -425 -123 -437 4 -4 35 -2
68 3 61 10 61 10 113 -27 132 -94 271 -103 364 -23 61 52 86 124 86 249 0 94
-3 108 -48 235 -160 450 -177 513 -156 599 15 64 38 85 84 77 87 -16 172 -182
194 -378 8 -70 25 -85 41 -36 18 58 111 399 111 409 0 12 -41 11 -94 -2 -42
-10 -45 -10 -110 35 -91 62 -187 85 -274 65z"/>
<path d="M2252 3511 c-96 -33 -160 -100 -189 -200 -23 -82 -13 -284 22 -416
128 -490 287 -683 521 -635 254 53 318 254 214 670 -82 327 -185 511 -320 574
-68 32 -168 35 -248 7z m109 -94 c69 -46 138 -184 210 -422 70 -233 93 -347
93 -477 1 -110 0 -118 -23 -142 -33 -36 -61 -33 -105 11 -53 54 -117 189 -180
381 -122 376 -145 592 -69 651 32 26 33 26 74 -2z"/>
<path d="M10170 3440 c0 -6 18 -33 40 -61 22 -28 40 -54 40 -58 0 -25 -363
-1038 -375 -1047 -9 -6 -42 -17 -75 -23 -33 -7 -60 -16 -60 -21 0 -4 19 -15
43 -23 23 -8 172 -60 331 -116 158 -56 295 -101 305 -101 12 0 34 51 89 208
40 114 72 210 72 215 -1 30 -53 -13 -164 -133 -104 -114 -133 -140 -155 -139
-43 1 -176 55 -173 71 2 7 40 118 84 246 81 232 82 233 107 227 41 -10 50 -23
77 -111 14 -46 31 -84 37 -84 7 0 39 75 71 168 33 92 61 173 64 180 8 24 -29
11 -99 -33 -66 -43 -73 -45 -105 -35 -19 6 -34 14 -34 17 0 13 154 449 163
460 15 20 180 -45 192 -76 4 -9 13 -97 21 -196 15 -173 23 -210 43 -189 17 17
152 417 144 425 -8 8 -661 239 -675 239 -4 0 -8 -5 -8 -10z"/>
<path d="M1679 3309 l-35 -42 -80 -2 c-131 -3 -228 -62 -275 -168 -21 -45 -24
-67 -23 -162 1 -135 27 -237 112 -446 122 -301 235 -440 386 -471 115 -24 270
44 317 139 20 40 24 62 23 133 -2 110 -44 250 -75 250 -18 0 -19 -4 -12 -52 4
-29 8 -96 7 -148 0 -78 -4 -103 -22 -137 -28 -54 -65 -78 -119 -78 -63 0 -118
59 -192 205 -117 231 -251 619 -251 728 0 48 4 58 34 88 27 27 42 34 72 34 80
-1 181 -73 271 -196 44 -60 65 -75 77 -56 9 15 -149 417 -165 420 -9 2 -31
-16 -50 -39z"/>
<path d="M5700 2404 c-41 -2 -167 -8 -280 -14 -1102 -59 -2276 -295 -3256
-655 -221 -81 -347 -134 -356 -148 -24 -38 3 -97 45 -97 11 0 102 32 201 71
898 355 2039 607 3131 693 1570 124 3279 -98 4780 -619 121 -42 241 -84 267
-93 38 -12 52 -13 73 -4 23 11 26 17 23 54 l-3 43 -70 28 c-116 47 -588 202
-791 260 -876 251 -1730 400 -2654 462 -210 14 -942 27 -1110 19z"/>
<path d="M4930 1890 c-26 -26 -27 -83 -2 -108 22 -22 260 -91 437 -127 297
-60 528 -80 850 -72 365 9 646 53 985 153 91 27 120 50 120 93 0 64 -56 92
-130 66 -176 -63 -551 -134 -809 -155 -407 -31 -853 15 -1248 131 -153 45
-175 47 -203 19z"/>
<path d="M6846 1875 c-3 -8 -1 -15 4 -15 6 0 10 7 10 15 0 8 -2 15 -4 15 -2 0
-6 -7 -10 -15z"/>
<path d="M6767 1868 c-6 -19 11 -48 28 -48 18 0 18 2 3 35 -12 27 -24 32 -31
13z"/>
<path d="M4263 1770 c-18 -11 -33 -24 -33 -30 0 -13 -72 -2 -81 13 -6 9 -240
-26 -262 -40 -5 -3 -6 -26 -2 -52 6 -42 4 -49 -20 -70 -19 -15 -24 -26 -17
-33 14 -14 97 14 97 33 0 8 10 15 21 17 15 2 20 9 17 20 -5 22 13 72 27 72 5
0 10 -9 10 -20 0 -11 7 -20 15 -20 9 0 12 -6 9 -15 -4 -10 0 -15 15 -15 22 0
29 24 11 35 -15 9 -2 25 15 18 8 -3 15 0 15 6 0 6 14 11 31 11 27 0 30 -2 19
-15 -18 -21 -3 -32 22 -16 17 11 23 10 36 -3 11 -11 12 -16 4 -16 -33 0 -3
-25 78 -65 50 -24 95 -45 101 -47 5 -2 18 -47 29 -99 18 -85 57 -228 65 -237
6 -7 109 51 201 113 l95 65 112 -35 c123 -38 210 -57 201 -44 -7 12 46 60 58
53 5 -3 4 -12 -3 -20 -6 -8 -9 -17 -6 -20 11 -11 43 8 77 49 31 36 33 40 13
35 -29 -8 -30 14 -3 52 l21 29 -43 11 c-24 6 -73 19 -110 30 -37 10 -69 16
-72 13 -3 -3 -11 -1 -18 4 -7 6 -44 21 -83 33 -38 13 -122 43 -185 67 -90 35
-119 42 -132 34 -25 -15 -30 -14 -23 8 4 15 -2 22 -32 34 l-38 15 -8 -30 c-6
-23 -4 -35 9 -49 18 -20 9 -25 -16 -9 -11 7 -18 3 -27 -13 -7 -12 -12 -29 -13
-37 0 -24 -54 -44 -81 -29 l-22 12 24 13 24 13 -27 1 c-19 0 -26 4 -22 14 3 8
-3 16 -15 19 -12 3 -21 12 -21 21 0 9 -16 30 -35 47 -36 32 -38 49 -5 49 11 0
24 9 30 20 14 27 -4 27 -47 0z m462 -150 c3 -5 -7 -24 -23 -41 -29 -33 -29
-33 -37 -10 -11 36 41 81 60 51z m-85 -80 c0 -5 -2 -10 -4 -10 -3 0 -8 5 -11
10 -3 6 -1 10 4 10 6 0 11 -4 11 -10z m36 -47 c-11 -11 -19 6 -11 24 8 17 8
17 12 0 3 -10 2 -21 -1 -24z m294 -14 c0 -6 -4 -7 -10 -4 -5 3 -10 11 -10 16
0 6 5 7 10 4 6 -3 10 -11 10 -16z m-204 -49 c-1 -45 -16 -48 -28 -5 -8 32 -3
45 16 45 9 0 13 -13 12 -40z m264 0 c0 -5 -12 -10 -26 -10 -14 0 -23 4 -19 10
3 6 15 10 26 10 10 0 19 -4 19 -10z m-534 -26 c-3 -9 -6 -21 -7 -27 0 -7 -4
-3 -8 8 -9 22 -5 35 11 35 5 0 7 -7 4 -16z m79 -122 c-3 -8 -5 -18 -5 -23 0
-17 -21 2 -30 27 -5 13 -7 31 -3 40 5 14 9 13 24 -7 10 -13 16 -30 14 -37z"/>
<path d="M7795 1754 c-38 -19 -106 -49 -149 -67 -49 -20 -81 -39 -84 -50 -3
-12 -8 -15 -17 -7 -8 7 -44 -2 -121 -29 -60 -21 -146 -48 -191 -61 -66 -19
-80 -26 -72 -37 9 -10 8 -13 -4 -13 -9 0 -18 4 -21 9 -4 5 -18 6 -34 2 -22 -6
-28 -14 -30 -44 -3 -31 -7 -37 -27 -37 -13 0 -27 5 -30 10 -3 6 2 10 12 10 13
0 18 8 18 25 0 17 -4 24 -14 20 -17 -7 -243 -53 -291 -59 -262 -37 -384 -46
-611 -46 -179 0 -424 17 -557 39 l-54 8 6 -31 c4 -17 11 -32 16 -34 25 -9 6
-21 -22 -15 -40 7 -35 3 -43 35 -6 23 -3 30 16 38 22 10 23 10 2 6 -12 -2 -23
-1 -25 3 -2 4 -38 14 -81 23 -76 15 -78 15 -92 -6 -8 -11 -15 -26 -15 -32 0
-17 -39 -102 -51 -109 -5 -4 -25 -37 -43 -74 -19 -37 -41 -73 -49 -79 -12 -10
-13 -18 -4 -42 6 -17 15 -30 19 -30 4 0 8 -7 8 -15 0 -26 29 -75 44 -75 18 0
90 57 187 148 42 40 82 72 88 72 6 0 11 14 11 30 0 23 4 30 20 30 16 0 20 -7
20 -34 0 -39 -3 -38 150 -54 59 -6 66 -10 85 -40 41 -66 135 -208 154 -232
l20 -25 36 35 c20 19 70 81 111 136 l75 101 142 6 142 5 44 -51 c25 -29 78
-85 118 -126 62 -63 75 -72 88 -61 19 16 117 189 140 247 15 38 21 43 66 52
28 6 55 11 60 11 6 0 19 10 29 22 15 19 20 20 33 9 13 -10 27 -10 68 -2 52 11
63 8 99 -29 3 -3 28 -24 56 -48 51 -42 72 -53 58 -30 -4 7 -3 8 5 4 6 -4 9
-12 6 -17 -4 -5 5 -14 19 -21 14 -6 26 -14 26 -18 0 -10 50 -31 60 -25 12 7
65 147 89 235 11 40 22 74 24 76 2 2 41 19 87 37 67 27 84 38 85 56 1 12 -4
26 -12 33 -11 9 -11 14 3 29 10 11 26 19 36 19 11 0 16 5 13 10 -4 6 -15 8
-26 5 -16 -5 -15 -2 6 19 14 14 30 26 35 26 6 0 10 17 10 38 0 51 13 62 57 49
25 -8 36 -8 41 1 4 6 8 -20 8 -58 1 -38 -2 -67 -6 -65 -4 3 -10 -1 -13 -9 -3
-8 1 -17 9 -20 8 -3 14 -19 14 -38 0 -26 3 -30 11 -18 7 11 9 6 7 -20 -3 -34
-1 -36 70 -73 55 -29 72 -34 72 -22 0 8 9 15 20 15 19 0 24 -10 21 -37 -1 -7
7 -13 17 -13 15 0 21 9 26 38 4 20 9 46 12 57 5 19 4 19 -9 3 -17 -21 -27 -14
-27 19 0 16 6 23 19 23 27 0 29 6 37 99 4 46 12 87 18 92 6 5 22 17 35 27 24
18 23 19 -140 45 -90 15 -173 27 -184 26 -11 0 -51 -16 -90 -35z m257 -50
c-24 -17 -39 -14 -27 5 3 6 16 11 28 11 l21 0 -22 -16z m-366 -39 c11 -8 14
-15 7 -15 -17 0 -12 -21 7 -37 9 -7 10 -12 4 -13 -6 0 -17 7 -24 15 -7 8 -22
15 -34 16 -11 0 -15 3 -8 6 6 2 12 13 12 24 0 23 10 24 36 4z m-80 -120 c9
-14 14 -28 10 -32 -8 -9 -46 27 -46 44 0 21 18 15 36 -12z m-403 -50 c-5 -13
-23 -22 -23 -11 0 15 14 35 21 31 4 -3 6 -12 2 -20z m780 8 c-7 -2 -19 -2 -25
0 -7 3 -2 5 12 5 14 0 19 -2 13 -5z m80 -33 c-3 -11 -10 -20 -15 -20 -6 0 -8
6 -5 14 3 8 -1 17 -9 20 -9 3 -12 10 -9 16 11 18 44 -7 38 -30z m-76 -20 c3
-11 9 -20 14 -20 5 0 9 -4 9 -10 0 -5 -6 -7 -12 -5 -17 7 -40 55 -26 55 5 0
12 -9 15 -20z m-667 0 c0 -5 -11 -10 -24 -10 -14 0 -28 5 -31 10 -4 6 7 10 24
10 17 0 31 -4 31 -10z m-587 -59 c-4 -15 -8 -19 -13 -10 -5 6 -3 18 3 24 16
17 17 14 10 -14z m-36 -7 c-3 -3 -12 -4 -19 -1 -8 3 -5 6 6 6 11 1 17 -2 13
-5z m513 -24 c0 -5 -4 -10 -10 -10 -5 0 -10 5 -10 10 0 6 5 10 10 10 6 0 10
-4 10 -10z m-375 -50 c3 -5 1 -10 -4 -10 -6 0 -11 5 -11 10 0 6 2 10 4 10 3 0
8 -4 11 -10z m-1308 -22 c-3 -8 -6 -5 -6 6 -1 11 2 17 5 13 3 -3 4 -12 1 -19z
m1006 2 c18 0 40 -11 60 -30 18 -17 24 -28 15 -24 -10 3 -18 11 -18 18 0 7 -4
6 -9 -2 -7 -12 -13 -11 -37 2 -39 21 -64 41 -64 52 0 4 5 3 12 -4 7 -7 25 -12
41 -12z m207 5 c0 -8 -6 -15 -14 -15 -17 0 -28 14 -19 24 12 12 33 6 33 -9z
m464 -4 c3 -5 -1 -12 -10 -15 -22 -9 -24 -8 -24 9 0 16 25 21 34 6z m-1614
-11 c0 -5 -7 -7 -15 -4 -8 4 -15 8 -15 10 0 2 7 4 15 4 8 0 15 -4 15 -10z
m1810 -44 c0 -14 -5 -28 -10 -31 -13 -8 -24 20 -16 40 9 24 26 17 26 -9z m-40
-23 c-1 -18 -18 -35 -24 -24 -4 6 -4 16 -1 21 7 12 25 13 25 3z"/>
<path d="M4400 1759 c0 -5 5 -7 10 -4 6 3 10 8 10 11 0 2 -4 4 -10 4 -5 0 -10
-5 -10 -11z"/>
<path d="M4338 1754 c-8 -7 2 -44 12 -44 13 0 32 29 25 40 -7 11 -28 14 -37 4z"/>
<path d="M4433 1743 c-13 -9 -23 -23 -24 -32 0 -10 -2 -11 -6 -3 -7 18 -19 15
-20 -5 -1 -10 -4 -29 -9 -43 -7 -24 -7 -24 13 -7 11 9 27 17 37 17 13 0 16 5
11 19 -4 15 1 23 20 34 21 11 24 16 13 24 -9 8 -19 7 -35 -4z"/>
<path d="M3800 1671 c0 -36 9 -61 22 -61 6 0 8 13 4 33 -3 17 -7 38 -8 45 -3
25 -18 11 -18 -17z"/>
<path d="M7790 1620 c0 -11 -5 -20 -11 -20 -7 0 0 -9 14 -20 32 -25 44 -25 52
0 5 15 0 26 -17 40 -30 25 -38 25 -38 0z"/>
<path d="M7835 1490 c3 -5 13 -10 21 -10 8 0 14 5 14 10 0 6 -9 10 -21 10 -11
0 -17 -4 -14 -10z"/>
<path d="M5267 1443 c-4 -3 -7 -11 -7 -17 0 -6 5 -5 12 2 6 6 9 14 7 17 -3 3
-9 2 -12 -2z"/>
</g>
</svg>
